# xmcd
#
# Track frame offsets:
#   150
#   11337
#   24825
#   38025
#   51212
#   66200
#   80325
#   92762
#   104587
#   116162
#   127250
#   139025
#
# Disc length: 1989 seconds
#
# Revision: 0
# Processed by: cddbd v1.5PL3 Copyright (c) Steve Scherf et al.
# Submitted via: Media_Universe 3.0
#
DISCID=9d07c30c
DTITLE=Conway Twitty - Showcase On
DYEAR=1900
DGENRE=Country
TTITLE0=Hello Darlin'
TTITLE1=The Games That Daddy's Play
TTITLE2=After All The Good Is Gone
TTITLE3=Danny Boy
TTITLE4=(Lost Her Love) On Our Last Date
TTITLE5=You've Nver Been This Far Before
TTITLE6=This Time I've Hurt More Than She Loves Me
TTITLE7=I Can't See Me Without You
TTITLE8=To See An Angel Cry
TTITLE9=As Soon As I Hang Up The Phone
TTITLE10=Linda On My Mind
TTITLE11=( I Can't Believe) She Gives It All To Me
EXTD=
EXTT0=
EXTT1=
EXTT2=
EXTT3=
EXTT4=
EXTT5=
EXTT6=
EXTT7=
EXTT8=
EXTT9=
EXTT10=
EXTT11=
PLAYORDER=
